# xmcd
#
# Track frame offsets:
#	150
#	12424
#	26711
#	42901
#	67143
#	94216
#	116011
#	127096
#	141649
#	155055
#	166926
#	177731
#	199561
#	225114
#	243043
#	267187
#	295210
#	309036
#	335823
#	345736
#
# Disc length: 4764 seconds
#
# Revision: 0
# Processed by: cddbd v1.5.1PL2 Copyright (c) Steve Scherf et al.
# Submitted via: dBpowerAMP V4.0
#
DISCID=2a129a14
DTITLE=Bob Dylan - Best of CD1
DYEAR=1900
DGENRE=
TTITLE0=Blowin in the Wind
TTITLE1=The times they are a-changing
TTITLE2=Don't think twice, It's all right
TTITLE3=Mr. Tamborine Man
TTITLE4=Like a rolling stone
TTITLE5=Just like a woman
TTITLE6=All along the watchtower
TTITLE7=Lay Lady Lay
TTITLE8=I shall be released
TTITLE9=If not for you
TTITLE10=Knockin' on heaveans door
TTITLE11=Forever young
TTITLE12=Tangled up in blue
TTITLE13=Oh, sister
TTITLE14=Gotta serve Somebody
TTITLE15=Jokerman
TTITLE16=Everything is broke
TTITLE17=Shelter from the storm
TTITLE18=Subterranean homesick blues
TTITLE19=I'll be your baby tonight
EXTD=
EXTT0=
EXTT1=
EXTT2=
EXTT3=
EXTT4=
EXTT5=
EXTT6=
EXTT7=
EXTT8=
EXTT9=
EXTT10=
EXTT11=
EXTT12=
EXTT13=
EXTT14=
EXTT15=
EXTT16=
EXTT17=
EXTT18=
EXTT19=
PLAYORDER=
